<?xml version="1.0" encoding="utf-8"?>
<!-- Generator: Adobe Illustrator 28.0.0, SVG Export Plug-In . SVG Version: 6.00 Build 0)  -->
<svg version="1.1" id="Layer_1" xmlns="http://www.w3.org/2000/svg" xmlns:xlink="http://www.w3.org/1999/xlink" x="0px" y="0px"
	 viewBox="0 0 341.2 785.7" style="enable-background:new 0 0 341.2 785.7;" xml:space="preserve">
<style type="text/css">
	.st0{fill:#0A1016;}
	.st1{fill:#EDB299;}
	.st2{fill:#736E76;}
	.st3{fill:#1C436D;}
	.st4{opacity:0.2;enable-background:new    ;}
	.st5{fill:#2BD6D6;}
</style>
<g>
	<g>
		<path class="st0" d="M1.3,416.7c-0.1-7.6,0.5-15.4-0.6-22.9c-0.9-6.1-1.1-11.9,0.3-17.9c0.4-1.8,0.4-3.5,1.3-5.3
			c0.8-1.6,1-3.9-0.4-5.9c-1.1-1.6-1.5-3.6,0.3-5.2c2.3-2,2.4-4.3,1.7-7c-0.9-3.4-0.9-6.6,2.5-8.9c1.6-1,1.2-2.4,0.2-3.5
			c-3-3.3-4.4-6.8-1.9-11.1c0.5-0.9,0.4-2.1-0.1-3.2c-2.8-5.4-2.3-9.6,1.9-14c1.3-1.4,1.9-2.9,0.7-4.2c-3.7-3.9-1.5-7.4,0.3-11.1
			c0.5-1,1-2.1,1.1-3.1c0.7-9.7,3.8-18.9,6.5-28c0.9-2.8,0.4-5.5,0.7-8.2c0.5-5.2,0.8-10.5,2.5-15.2c2.4-6.6,3.5-13.6,6.8-19.9
			c2.8-5.5,5-11.3,8.8-16.4c1.6-2.1,3.8-2.9,5.5-4.7c3.1-3.4,6.4-7.4,11.1-8.6c4.7-1.2,6.7-4,8.4-8.3c2.2-5.5,5.8-10.5,8.3-15.9
			c1.9-4.3,4.6-8.1,6.7-12.3c1.1-2.3,3.4-3.5,4.9-5.5c0.6-0.8,1.7-1.1,1.9-2.2c2.1-0.8,2.9,0.9,4,1.9c2.2,2.1,2.8,5.1,4,7.8
			c0.7,1.6,1.6,3.6,3.6,3c3.3-0.9,5.9,0.5,8.8,1.3c7.1,1.9,14.1,3.2,21.6,1.3c4.1-1.1,8.1-2.3,13-4.3c-2.6,6.1-5.8,10.2-11.2,12.4
			c-3,1.2-7,2.1-5.3,7.1c0.2,0.6,0,1.5-0.1,2.2c-0.8,4.7-4.3,6.3-8.1,3.8c-0.8-0.6-1.7-1.1-2.6-1.5c-1.8-0.7-2.9-0.6-3.4,1.8
			c-0.4,2.1,0.3,3.6,1.4,5.1c0.5,0.6,0.7,1.4,0,2c-0.4,0.4-0.9,0.4-1.2-0.2c-1.2-3.1-4.7-4.8-4.5-8.7c0.1-1-0.2-2.1-1.5-3.3
			c-1.9,5.2-3.6,10-5.3,14.8c-1.3-2.3,0.1-4.4,0.8-6.4c1.5-4.2,2.9-8.5,5.5-12.2c1.1-1.6,0.4-3.2-0.8-3.9c-1.8-1.1-1.7,1.2-2.3,2
			c-2.8,4-4.4,8.6-6.2,13.1c-6.9,17.8-12.6,36-13.3,55.3c-0.7,18-2.6,36-3.7,54c-1,16.3-1.5,32.6-2.2,48.9
			c-0.6,14.7-1.5,29.4-1,44.1c-0.5,7.5-1,15-1.5,22.5c-0.5,8.6-0.8,17.2-1.6,25.7c-1.2,12.5-2.7,25-2.8,37.5
			c-0.1,10.3-0.2,20.7,0.5,31c0.8,10.4,2,20.9-0.6,31.2c-1.6,6.6-3.5,13.2-6.1,19.6c-0.7,1.7-1.2,3.3,0.6,4.7
			c10.3,8.4,20.9,16.8,32.7,22.9c18.8,9.8,39.3,11.8,60.1,10.2c4.4-0.3,4.4-0.7,2.6-4.7c-4.8-10.5-8.1-21.7-12.1-32.6
			c-1.5-4-3.4-7.8-4.3-12c-3.2-14.4-2.3-28.8,1.1-43c3.6-15.2,4.9-30.7,5.4-46.2c0.2-5.9,0.9-11.6,2.6-17.2
			c3.4-11.3,5.6-22.9,6.2-34.7c0.2-1.6,0.5-3.2,0.7-4.8c1.5-9.3,3-18.6,4.4-27.9c0.1-0.3,0.1-0.5,0.2-0.8c1.5-5.4,1.1-10.7-0.2-16.1
			c0-0.5,0-1,0-1.4c0.4-1.4,0.9-2.8,1-4.2c0.2-3.1,2.1-6.5-0.9-9.3c-0.3-14.9-0.9-29.8,0.1-44.7c0.8-10.8,2.7-21.5,3.7-32.2
			c0.5-5.6,1.1-11.1,2.4-16.6c3.9-7.6,6-15.7,8.3-23.9c0.7-2.5,1.5-5.1,0.4-7.7c-1.1-2.8-1.2-5.6-1.2-8.4c0-5.1,0-10.2,0-15.3
			c0.5-2.3,1.1-4.6,1.4-6.9c1.1-8.3,1.8-16.7,3.2-25c1.3-7.8,3.2-15.6,4.9-23.3c0.6-2.9-0.2-6,1.2-8.8c1.8-0.6,4.3,0.5,5.1-2.3
			c2-0.2,3.9-0.2,5.9-0.6c6.2-1.2,11.4,1.8,16.6,4.1c2.7,1.2,3.8,4.6,4.8,7.1c1.5,3.8,3.6,7.1,6.6,9.5c3.3,2.6,4.1,6.3,5.1,9.7
			c1.2,3.9,3.6,5.9,6.8,7.6c3.4,1.8,5.6,5,4,8.7c-0.7,1.6-0.4,2.3,1.5,2.7c4.9,1.1,9.3,3.9,14.4,4.4c2,0.2,3.2,2,4.7,2.9
			c7.5,5,15.7,9.1,22.1,15.4c4.8,4.7,10.1,8.8,14.3,14c3.5,4.2,6.4,8.9,9.4,13.4c3.2,5,5.4,10.7,8.4,15.7c1.8,2.9,4.5,5.9,7,8.7
			c3,3.4,6.6,7.3,6.9,12.5c0.1,2.5,1.9,4.3,2.5,6.8c1.6,6.7-0.5,12.3-4.9,16.8c-2.3,2.4-2.2,4.2-1.2,6.7c2.1,5,2.8,10.5,3.2,15.8
			c0.5,6.8,3,13.1,3.7,19.8c0.1,1,0.4,2,0.3,2.9c-0.7,6.7,2,12.4,5,18c0.7,1.3,0.6,2.8,0.1,4c-3.2,8.9-0.7,17,2.7,25.2
			c1.8,4.3,4.3,8.6,1.6,13.6c-1.3,2.3-0.7,5.2,0,7.7c1.2,4.2-0.8,7.4-2.8,10.8c-2.4,3.9-4.8,7.8-6.5,12c-1.8,4.3-4.5,8.2-5.5,12.9
			c-0.1,0.4-0.6,1-1,1c-4.9,0.7-5.3,5.1-7.3,8.4c-3,4.6-4.7,9.8-7.8,14.4c-2,3-3.9,6.3-5.4,9.7c-1.9,3.9-5,7-7.2,10.6
			c-1.1,1.8-2,3.7-4.5,4.1c-1.5,0.3-1,1.8-1.2,2.8c-0.8,4.1-0.7,8.3-3.2,11.9c-0.2,0.4-0.3,1.1-0.1,1.5c2.1,3.9-2.2,5.1-3.1,7.6
			c-2,5.8-6.2,10.6-7,17c-1,7.4-4.3,13.7-10.5,18.3c-2,1.5-1.9,3.9-2.1,6c-0.7,7.2,2.3,13.7,3.8,20.5c0.9,4,0.9,8.1,0.1,12.2
			c-1.8,9.2-3.7,18.4-3.3,28c0.4,8.5-1,16.8-3.4,25c-0.3,0.9-0.3,2-0.3,3c0.3,10.5-2.4,20.7-2.7,31.2c-0.2,5.5-3.2,10.8-3.4,16.5
			c-0.4,8.8,1.4,17.2,3.4,25.7c1.2,5.2,2.1,10.7,2.5,16.1c0.4,6.1,3.2,11.6,3.5,17.6c0.5,8.4,3.4,16.4,4.5,24.8
			c0.6,4.9,1.4,10.1,3.8,14.7c0.5,0.9,0.3,2.2,0.4,3.3c-27.4,0-54.9,0-82.3,0c-0.1-1.4-0.2-2.7-0.2-4.1c-0.1-8.6,0.9-17.2-3.2-25.3
			c-1.3-2.6-0.3-6.3-1.4-8.7c-2.3-5-2.5-10.3-3.8-15.4c-1.1-4.3-0.6-8.6-4-12.6c-4.5-5.2-5.7-12.4-8.1-18.7
			c-2.4-6.5-4.1-13.2-7-19.5c-3.1-6.6-6.4-13.2-12.4-18.4c-0.1,0.8-0.1,1.3-0.1,1.7c-0.1,5.8,0.5,11.7-1.4,17.4
			c-1.2,3.5-1.8,7.2-2.2,10.9c-0.5,4-2.3,6.4-6.3,7.3c-2.6,0.5-2.3,1.2-0.9,3c1.1,1.5,2.7,3.1,3.1,4.8c1.6,6.6,4,13.2,4.1,20.1
			c0.2,19.2,0.5,38.5-2.2,57.6c-24.2,0-48.4,0-72.6,0c0.5-4.1-0.4-8.2,0.9-12.5c0.7-2.4-0.9-6-1.9-8.8c-1.8-5.1-1.8-10.3-1.3-15.3
			c0.7-6.2,0-12.5-2.6-17.3c-5.1-9.2-6-18.8-6.5-28.8c-0.2-4-0.1-8.1-2-12.1c-1.7-3.6-1.8-7.9-1.9-12c-0.1-3.5-1.3-6.9-3.8-9.9
			c-4.4-5.3-7.2-11.5-7.1-18.6c0.1-4.2-1.9-8-2.7-11.9c-1.8-8.7-4.4-17.1-2.9-26.3c0.9-5.9-0.3-11.9,0.8-17.9c0-0.2-0.1-0.5,0-0.7
			c2-4.3-0.2-5.9-4.1-6.7c-1.2-0.2-1.6-6-0.3-7.1c4.7-3.7,5.8-8.5,5.6-14.2c-0.3-6.9-0.7-7.6-7.7-8.7c-2.4-0.4-4.7-1.1-7.1-1.5
			c-1.3-0.2-2-1.3-2.2-2.3c-1.5-5.1-4.6-9.6-4.8-15.1c-0.1-3.1-2.6-5.5-3-8.6c-0.9-8.3-5.1-15.4-8.3-22.8c-1.3-3.1-2.1-6.5-1.4-9.8
			c0.9-4,0.5-7.9-0.2-11.8c0.7-1.4,0.2-3.4,2.3-4c0,0.5,0.1,1,0.1,1.5c-0.1,1.6,0.4,3.3,1.7,3.7c1.2,0.4,1.6-1.5,2.4-2.4
			c3.6-3.9,6-8.5,8.7-13c4.8-8,6-16.9,6.9-25.9c0.2-1.6-1.2-2.8-0.5-4.6c1.4-3.7,1.1-7.6-0.3-11.5c-0.1-0.2,0-0.5,0.1-0.7
			c3.2-3.7,0-9.1,3.3-12.8c0.4-0.4,0.5-1.5-0.3-1.5c-2.7-0.2-1.6-1.7-0.8-2.7c1-1.4,1.1-3.1,0.5-4.3c-1.7-3-0.6-5.8-0.2-8.7
			c0.1-1.1,0.9-2.2-0.2-3.1c-6.9-5.3-14.8-7.4-23.3-7.2c-1.6,0-2.9,0.5-2.8,3.3c0.1,2.4-0.1,5.2,0.3,7.4c0.5,2.9-1.3,4.9-1,7.6
			c0.6,4,0.5,8.1,0.7,12.1C4,417.2,2.9,416.4,1.3,416.7z M229.5,312.4c-0.1-0.1-0.2-0.2-0.3-0.4c0,0.1,0,0.2,0.1,0.2
			C229.3,312.3,229.4,312.3,229.5,312.4c0.3,0.6,0.9,0.7,1.5,0.7c0.1,1.5,1.2,1.5,2.2,1.5c2.1,1.8,5.2,3,6.2,0.2
			c1.3-3.5,2.5-7.5,1.2-11.5c-0.2-0.6-0.4-1.3-1.2-1.1c-1.2,0.2-0.8,1-0.4,1.7c1.7,3.1-0.2,6.3-0.1,9.5c0.1,1.5-1,2.4-2.9,1.8
			c-0.9-0.3-1.9-0.3-2.9-0.4c-0.4-1-1.2-1.5-2.2-1.5C230.7,312.5,230.1,312.4,229.5,312.4z M237,278.6c-0.4,0.2-0.8,0.3-1.2,0.5
			c0.1,0.1,0.2,0.3,0.3,0.4C236.4,279.2,236.7,278.9,237,278.6c0-0.1,0.2-0.1,0.2-0.2c0,0,0-0.1,0.1-0.2
			C237.2,278.4,237.1,278.5,237,278.6z M201.2,281.5c0.3-2.6-1.6-4.3-2.4-6.4c-0.3-0.7-0.6-1.5-1.5-1.4c-1,0.2-0.8,1.2-0.7,1.8
			c0.2,2.9,3.4,3.8,4.4,6.2c1.5,6.8,5.9,6,9.9,2.3c2-1.9,3.9-3.6,7.1-2.8c-1.6-1.8-3.3-3.3-4.8-4.9c-1.2-1.2-1.2-3.2,0.6-2.8
			c6.4,1.2,9.6-1.6,11.1-7.5c0.1-0.5,1-0.7,1.4-1.2c0.6-0.7,0.3-1.4-0.3-2c-0.8-0.7-1.3-0.1-1.7,0.6c-0.4,0.7-0.7,1.3-1,2
			c-2.7,6.5-2.7,6.5-9.7,6.5c-1.1,0-2.5-0.5-3.1,0.7c-0.6,1.5-0.9,3.4,0.3,4.6c3.8,4.2-1.2,5-2.7,6.7c-1.7,2-3.8,0.8-5.2-1.3
			C202.3,282.1,201.7,281.8,201.2,281.5z M221.3,505.6c0.1,0.6,0,1.4,0.3,2c3.6,7.9,5.4,16.6,9.7,24.3c3.5,6.2,6.9,6.7,11.9,1.5
			c0.6-0.6,1.3-1.2,1.7-2c4.4-7.5,10.3-13.9,15.9-20.6c5.2-6.3,10.2-12.9,15.3-19.3c1.2-1.5,3.2-2.2,4-4.1c1.3-3,3-5.6,5.7-7.6
			c0.8-0.6,2.6-1.6,1.4-3.6c-0.4-0.6,0.6-1.3,1.3-1.6c5.2-2.5,5.9-8.3,9-12.3c2.3-2.9,3.2-6.5,5.3-9.5c2-2.7,4.6-5,4.5-8.7
			c0-0.5,0-1.1,0.6-1.2c3.9-0.6,5-4.3,7.3-6.6c2.8-2.8,2.5-5.3-0.4-6.9c-11.9-6.5-24.7-10.4-38-12.8c-2.2-0.4-4.5,0.3-4.8,2.5
			c-1.2,7.5-6.4,13.1-9.2,19.9c-3.2,7.9-8.1,15.3-12.4,22.9c-4.5,8.1-11.3,14.2-17.1,21.2c-5.1,6.2-8.3,13.4-12,20.4
			C221.2,504.1,221.4,504.8,221.3,505.6z M254,353.7c-1.7,31.6-4.8,63-4.5,94.8c0.7-0.3,0.9-0.3,0.9-0.4c3.4-6.5,6.8-13,9.3-19.9
			c2.8-7.6,6.9-14.7,8.8-22.6c0.6-2.6,2.7-5.1,0.9-8.5c-3.8-6.9-5.7-14.6-7.8-22.2c-1.7-6.1-2.2-12.5-4.5-18.5
			C256.7,355.4,256.4,354,254,353.7z M188.7,288.8c0.7-1.7,0.1-2.8-0.6-3.8c-1.3-1.7-3.4-2.5-5.3-2.2c-1.8,0.3-1,2.5-1.2,3.9
			c-0.2,1.6,0.3,3.3-0.4,4.8c-0.4,0.8,0.2,2.3-1.1,2.5c-1.3,0.2-1.3-1.2-1.7-2.1c-0.5-1-0.6-2.5-2.8-2.5c1.6,4.1,2.7,8.2,5,11.8
			c1.3,2,0.6,4.8-0.6,5.8c-1.7,1.3-1.9-1.8-3.1-2.6c-0.6-0.4-0.6-1.5-1.8-1.3c-0.2,6-0.7,11.9,0.5,17.9c1.3-4.1,0.1-8.4,1.3-12.8
			c1.4,1,1.1,2.3,1.5,3.2c1,2.5,3.3,2.5,5.3,2.4c2.4-0.1,1.4-2.1,1.6-3.5c0.8-6.5,1.2-13-2.5-19c-1.1-1.7-0.5-4.9,1.2-6.1
			c2.1-1.4,2.4,1.8,3.6,2.7C187.9,288.2,188.2,288.4,188.7,288.8z M206.1,292.4c-4.9,1.6-5.1-3.1-7.6-5.3c-0.9,5.3-3.4,9.9-1.3,15.6
			c2.7-4.8,5.9-0.9,9.4-0.7C205.1,298.7,203.2,295.7,206.1,292.4z M37.5,433.2c2.7-14.4,1.8-28.7,1.8-43.8
			C36.9,393.7,36.1,420.2,37.5,433.2z M227.7,286.2c2.1-5-0.5-8.8-2.7-12.9c-1.6,1.5-1.5,4.8-5,3.4c-1.3-0.5-1,1.3-0.5,2
			c1.1,1.4,2.2,2.7,0.6,4.6c-0.5,0.6,0.2,1.4,0.7,1.1C223.7,283,225.7,284.6,227.7,286.2z M201.5,305.1c1.5,1.4,0.8,2.4-0.1,3.6
			c-0.7,1-0.7,2.2,0,3.1c0.7,0.9,1.9,0.7,2.8,0.3c1.9-0.8,5.1-0.4,5.4-2.2c0.4-2.7-2.9-3.1-4.9-4.3
			C203.9,305.1,203.1,304.6,201.5,305.1z M213.5,309.5c1.4,0,2.5-0.2,3.6-1.6c4-5.2,3.2-10.9,2.5-16.7c-0.1-0.5-0.3-1.1-0.8-1
			c-0.4,0.1-0.9,0.5-1,0.9c-0.4,1,0.1,1.9,0.2,2.9C218.7,299.8,219.1,305.4,213.5,309.5z M188.6,318.4c-2.8-0.2-5.7-0.5-8.5-0.7
			c-1.1-0.1-1.5,0.7-1.5,1.7c-0.1,2,0.5,4.5-0.5,5.8c-1.4,1.9-3.9-0.7-5.9,0c-0.2,0-0.3,0.3-0.4,0.4c6.4,3.8,7.5,4.5,8.2-3.9
			c0.2-2,0.9-2.4,2.7-2.6C184.7,318.8,186.6,320.4,188.6,318.4z M186.2,281.3c-1.3-2.2-3.6-2.4-5.6-3.1c-1.1-0.4-1.7,0.4-1.8,1.3
			c-0.2,1.9-0.7,3.7-1.4,5.4c-0.2,0.6-0.2,1.3,0.5,1.6c0.9,0.4,1.4-0.2,1.6-1c0.2-0.7,0.6-1.5,0.6-2.2c-0.2-3.5,1.5-3.7,4.1-2.6
			C184.8,281.1,185.5,281.1,186.2,281.3z M214.6,289.6c-3.1,1.5-3.1,1.5-1.4,12.8C214.8,297.7,209.4,293.2,214.6,289.6z
			 M235.1,299.6c1.9-1.2,4.1-0.9,5.2-2.8c0.1-0.2-0.3-1-0.3-0.9c-1.9,0.4-3.5,1.3-4.9,2.7C235.1,298.5,235.1,298.7,235.1,299.6z
			 M234.7,281.1c-1.9-0.4-3.1,0-2.9,1.2C232.6,281.9,233.7,281.5,234.7,281.1z M239.2,293.4c0.1,0,0.2-0.1,0.2-0.1
			c-0.1,0-0.1-0.1-0.2-0.1c-0.1,0-0.2,0.1-0.2,0.1C239.1,293.3,239.1,293.3,239.2,293.4z M236.1,302.3c0.1,0,0.2,0.1,0.3,0.1
			c0,0,0.1-0.1,0.1-0.2c-0.1,0-0.2-0.1-0.3-0.1C236.1,302.1,236.1,302.2,236.1,302.3z"/>
		<path class="st1" d="M93.8,194.7c1.7-4.8,3.4-9.5,5.3-14.8c1.3,1.2,1.6,2.3,1.5,3.3c-0.2,3.8,3.3,5.6,4.5,8.7
			c0.2,0.6,0.7,0.6,1.2,0.2c0.7-0.6,0.4-1.4,0-2c-1.1-1.5-1.9-3-1.4-5.1c0.5-2.4,1.6-2.5,3.4-1.8c0.9,0.4,1.8,0.9,2.6,1.5
			c3.8,2.5,7.3,0.9,8.1-3.8c0.1-0.7,0.3-1.5,0.1-2.2c-1.6-5,2.3-5.8,5.3-7.1c5.4-2.2,8.6-6.2,11.2-12.4c-4.9,1.9-8.9,3.2-13,4.3
			c-7.5,1.9-14.5,0.6-21.6-1.3c-2.9-0.8-5.6-2.2-8.8-1.3c-2.1,0.6-2.9-1.5-3.6-3c-1.2-2.7-1.8-5.7-4-7.8c-1.1-1.1-2-2.8-4-1.9
			c-0.4-3.2-2-6.1-2.4-9.2c-1.2-9.7-5.8-18.6-6.1-28.5c-0.2-5.9-0.3-11.6,0.8-17.4c0.7-3.5,0.1-6.9-1.7-10.1
			c-1.2-2.1-1.8-4.2-0.4-6.7c1.2-2,0-4.6-1-5.9c-2.7-3.4-1.4-6.8-1-10.2c3.1,0.2,1.4,3.8,3.6,5c0.2-0.6,0.5-1.1,0.5-1.5
			c0.3-6.5,2.8-12.4,5.6-18.1c1.8-3.9,4.6-7.2,9.3-6.8c3,0.3,5.4-0.5,7.7-1.9s4.7-1.8,7.3-2.5c2.5-0.6,5.4-0.3,7.5-1.7
			c3.8-2.6,7.4-1.4,11-0.1c2.7,1,5.3,2.2,7.8,3.5c2.8,1.4,5.7,2.4,8.8,2.1c3.5-0.3,6.8,1.4,9.5,2.5c4.9,2.1,6.1,9.6,3.7,14.6
			c-1.1,2.3-1.1,4.5-0.5,6.9c1.4,4.8,1.3,10.1,5.4,13.8c0.2,0.2,0,0.8,0.2,1.1c1.7,3,0.1,6.9,1.8,9.6c4.8,7.6,3.2,16.3,4.4,24.5
			c0.5,3.3,0.5,4.3,4.3,4.3c0.7,0.8,1.4,1.6,2.2,2.4c0.6,3.3-2.1,1.8-3.5,2c0.8,2.8,3.8,2.3,4.8,3.8c2.9,4,7,7.7,5.9,13.5
			c-0.2,1.3-0.6,2.6,1.6,2.2c0.3,1.6-0.3,3-0.8,4.4c-3.8,11.2-3.9,22.9-5,34.4c-4.7,6.4-9.3,13-14.2,19.2
			c-9.6,12.2-19.6,23.9-35.3,29.1c-10.6,3.5-16.1,3.1-23.1-5.6C93.1,213.4,90.4,204.6,93.8,194.7z"/>
		<path class="st2" d="M166.7,115.7c-3.8,0-3.8-1-4.3-4.3c-1.2-8.2,0.4-16.9-4.4-24.5c-1.7-2.7-0.1-6.6-1.8-9.6
			c-0.2-0.3,0-0.9-0.2-1.1c-4.2-3.7-4.1-9-5.4-13.8c-0.7-2.4-0.6-4.6,0.5-6.9c2.4-5,1.2-12.5-3.7-14.6c-2.8-1.2-6.1-2.9-9.5-2.5
			c-3.2,0.3-6-0.7-8.8-2.1c-2.6-1.3-5.1-2.5-7.8-3.5c-3.6-1.3-7.1-2.5-11,0.1c-2,1.4-5,1.1-7.5,1.7c-2.5,0.6-4.9,1.1-7.3,2.5
			c-2.3,1.3-4.7,2.2-7.7,1.9c-4.7-0.4-7.4,3-9.3,6.8c-2.7,5.7-5.2,11.6-5.6,18.1c0,0.5-0.3,0.9-0.5,1.5c-2.1-1.2-0.5-4.8-3.6-5
			c0.1-2.3,0.3-4.6-2.2-6.2c-0.8-0.5-1.1-1.9-0.4-2.7c3.1-4,1.2-8.5,1.5-12.8c0.2-2.2,0.5-4.1,2.3-5.5c1.2-0.9,2-2.2,2.5-3.6
			c1.3-3.3,4.6-4.5,6.7-6.9c2.6-2.9,6.9-3.8,7.9-8.9c0.7-3.2,2.9-7.7,8.6-6.9c2.4,0.3,4.8-1.9,7.5-2.4c2.2-0.4,4.3,0.3,6.4-0.3
			c2.7-0.7,5.1-0.7,7.7-2.6c3.6-2.7,8.8-1.5,13.3-0.7c0.3,0.1,0.8,0.6,0.9,0.6c6.2-3.9,10.4,4.2,16.2,2.6c0.4-0.1,1.1,0.1,1.3,0.4
			c2.7,3.5,7,5.2,10.1,8.1c2.9,2.7,7.2,2.6,9.6,5.7c-1.5,2.1,0.9,2.5,1.6,3.4c6.5,7.6,13.9,14.8,12.7,26.2c-0.2,2.1,0.3,4.3-2.2,5.5
			c-0.8,0.4-1,1.5-0.8,2.3c0.8,4.1-0.1,8.4,1,12.2c1.3,4.4-0.7,5.8-4,7.1c-9.5,3.7-14.2,10.8-14.3,21
			C162.7,102.9,164.1,109.4,166.7,115.7z"/>
		<path class="st3" d="M166.7,115.7c-2.7-6.3-4-12.8-3.9-19.6c0.2-10.3,4.8-17.3,14.3-21c3.3-1.3,5.3-2.7,4-7.1
			c-1.1-3.8-0.2-8.2-1-12.2c-0.2-0.9,0-1.9,0.8-2.3c2.5-1.2,2-3.4,2.2-5.5c1.3-11.5-6.2-18.6-12.7-26.2c-0.8-0.9-3.2-1.3-1.6-3.4
			c6.3,2.8,9.9,8.3,13.4,13.8c0.2,0.3,0.1,1.1,0.6,1.2c7.3,0.9,4.8,7.2,6.2,11.3c0.4,3.1,0,6.6,1.8,9c2.1,2.9,2,5.7,2,8.8
			c0,2.9,0.4,5.8-0.2,8.6c-0.9,4-0.9,7.8,0.9,11.5c-6.7-3.1-11.6-0.8-13.4,6.5c-1.3,5.1-1.3,10.4-1,15.6c0.2,3.3,1.1,6.4,3.5,8.8
			c0.4,0.6,0.8,1.2,1.2,1.8c0,0.4-0.1,0.8-0.1,1.2c-4.2-1.6-4.8-1.2-5.1,2.9c-0.1,1.1-0.2,2.2-0.2,3.3c-1.7,0.3-3-0.5-4.4-1.3
			c-1.8-1-3-2.9-5.1-3.3C168.2,117.3,167.4,116.5,166.7,115.7z"/>
		<path class="st2" d="M193.6,82.4c-1.9-3.7-1.8-7.4-0.9-11.5c0.6-2.7,0.2-5.7,0.2-8.6c0-3,0.1-5.9-2-8.8c-1.8-2.4-1.4-5.9-1.8-9
			c2.5,2.2,5.3,4.1,5.4,8c0.1,2.9,2,5.5,1.9,8.6c-0.1,2.6,0.6,5.2-0.4,7.7c-1.6,4-1.1,7.5,2.5,10c2.3,1.7,1.7,3.1-0.2,4.1
			c-2.1,1.1-1.5,1.8-0.3,3c1.8,1.8,2.1,4.6,4,6.4c0.5,0.5,0.7,1.5,0.2,2.1c-4.5,5.2-3.2,11.6-3.4,17.6c-0.2,4.9-1.7,6.9-6.6,8.2
			c-2.4,0.6-2.4,3.3-3.9,4.7c-0.8,2.8-3.3,1.7-5.1,2.3c0.8-3.6,0.7-7.3,0.6-10.9c0-0.4,0.1-0.8,0.1-1.2c4.8,2.1,6.6,1.8,9.5-1.7
			c0.4-0.1,0.7-0.3,0.7-0.7c0.8-0.1,0.9-0.7,0.9-1.4c1.6-0.5,1.8-2.1,2-3.3C198.6,99.1,200,90.2,193.6,82.4z"/>
		<path class="st0" d="M10,481c-2.1,0.6-1.6,2.6-2.3,4c-0.5-0.1-1.5,0.1-1.1-0.9c2.1-5.6-0.3-11-1.1-16.4c-0.1-0.9-0.4-1.7-0.4-2.6
			c0.1-10.7-2.5-21.2-2.7-31.9c-0.1-5.4-1.2-11-1.1-16.5c1.6-0.3,2.7,0.5,3.8,1.5c0,5.5-0.3,11,0.6,16.6c1.3,8.4,0.3,17.1,2.9,25.4
			c1.2,3.8-1,7.5,0.2,11.3C9.7,474.5,10.3,477.7,10,481z"/>
		<path class="st4" d="M70.8,389.6c3.1,1,4.3,4,5.9,6.4c3.2,4.7,5.8,9.9,7.7,15.3c1.1,3.2,0.1,4.3-3.4,3.6c-1.1-0.2-2.2-0.4-3.3-0.5
			c-2.6-0.3-3.6,0.7-4,3.5c-0.7,5-0.9,9.9,0.7,14.7c0.4,1.1,0.4,2.6,0.1,3.7c-1.5,5.5-1.1,11,0,16.5c0.3,1.5,0.5,2.9,1.2,4.3
			c0.4,0.9,1.3,2,1,2.7c-2.1,6.3,3.9,9.7,5.2,14.8c0.1,0.3,0.4,0.8,0.6,0.9c3.8,0.7,4.4,3.8,5.4,6.7c0.5,1.4,1.3,2.6-1.2,2.7
			c-1,0-1.6,0.5-1.6,1.6c0,1.1,0.9,1.8,1.6,1.8c4.7-0.6,6.3,4.3,9.9,5.5c1.2,0.4,0.9,1.6,1.2,2.5c0.8,3.8,3.5,5.2,6.5,3.1
			c2.6-1.8,4,1,6.2,0.7c1.6-0.2,3.5,1.3,3.8-1.6c0-0.1,0.1-0.3,0.2-0.3c1.7-0.4,6.1,1.4,2.3-3.3c-1.3-1.7-0.8-4.8-4.1-5.5
			c4-0.9,6-4.5,9.4-5.8c0.4-0.1,0.8-0.7,0.9-1.1c1.6-5.9,8.5-9.1,7.9-16.4c-0.2-2.6,3.4-4.8,4.7-7.8c0.9-2.2,1.1-3.9,0.1-5.9
			c-1.9-3.9-0.7-7.1,1.4-10.7c3.6-6.5,7.9-12.5,11.9-18.8c2.8-4.5,1-7-4.4-7.1c-1.9,0-3.8,0-5.6-0.1c-0.8-0.1-1.9-0.3-2-1.4
			c-0.2-1.1,0.9-1.3,1.7-1.6c0.4-0.1,0.7-0.3,1.1-0.4c5.6-0.8,9.3-5.1,13.8-7.8c-0.6,11.8-2.8,23.4-6.2,34.7
			c-1.7,5.6-2.4,11.3-2.6,17.2c-0.5,15.5-1.8,31-5.4,46.2c-3.4,14.2-4.2,28.6-1.1,42.9c0.9,4.1,2.8,8,4.3,12
			c4,10.9,7.2,22,12.1,32.6c1.8,4,1.8,4.4-2.6,4.7c-20.9,1.6-41.4-0.4-60.2-10.2c-11.8-6.1-22.3-14.5-32.7-22.9
			c-1.7-1.4-1.3-3-0.6-4.7c2.6-6.3,4.5-12.9,6.1-19.6c2.6-10.3,1.3-20.8,0.6-31.2c-0.8-10.4-0.6-20.7-0.5-31
			c0.1-12.6,1.7-25,2.8-37.5c0.8-8.5,1.1-17.1,1.6-25.7C69.8,404.6,70.3,397.1,70.8,389.6z"/>
		<path class="st1" d="M221.3,505.6c0.1-0.8-0.1-1.5,0.2-2c3.6-7,6.8-14.2,12-20.4c5.8-7,12.6-13.1,17.1-21.2
			c4.2-7.6,9.2-15,12.4-22.9c2.8-6.8,8-12.4,9.2-19.9c0.4-2.2,2.6-2.9,4.8-2.5c13.3,2.4,26.1,6.3,38,12.8c2.9,1.6,3.2,4,0.4,6.9
			c-2.3,2.3-3.4,6-7.3,6.6c-0.6,0.1-0.7,0.7-0.6,1.2c0.1,3.7-2.6,6-4.5,8.7c-2.1,2.9-3,6.5-5.3,9.5c-3.1,4-3.8,9.8-9,12.3
			c-0.7,0.3-1.6,1-1.3,1.6c1.2,2-0.6,3-1.4,3.6c-2.7,2-4.4,4.6-5.7,7.6c-0.8,1.9-2.8,2.6-4,4.1c-5.1,6.4-10.1,13-15.3,19.3
			c-5.6,6.7-11.5,13-15.9,20.6c-0.4,0.7-1.1,1.3-1.7,2c-5,5.2-8.4,4.8-11.9-1.5c-4.3-7.7-6.1-16.3-9.7-24.2
			C221.3,507,221.4,506.2,221.3,505.6z"/>
		<path class="st1" d="M10,481c0.3-3.3-0.4-6.5-1.3-9.5c-1.2-3.8,1.1-7.5-0.2-11.3c-2.6-8.2-1.6-17-2.9-25.4
			c-0.8-5.6-0.5-11.1-0.6-16.6c-0.2-4-0.2-8.1-0.7-12.1c-0.4-2.7,1.5-4.7,1-7.6c-0.4-2.2-0.2-5-0.3-7.4c-0.1-2.7,1.2-3.2,2.8-3.3
			c8.5-0.2,16.5,1.9,23.3,7.2c1.1,0.9,0.4,2.1,0.2,3.1c-0.4,2.9-1.4,5.8,0.2,8.7c0.7,1.2,0.6,2.9-0.5,4.3c-0.8,1-1.9,2.5,0.8,2.7
			c0.8,0.1,0.7,1.1,0.3,1.5c-3.3,3.7-0.1,9.1-3.3,12.8c-0.1,0.1-0.2,0.5-0.1,0.7c1.4,3.9,1.7,7.8,0.3,11.5c-0.7,1.8,0.7,3,0.5,4.6
			c-0.9,9-2.1,17.9-6.9,25.9c-2.7,4.5-5.1,9.1-8.7,13c-0.8,0.9-1.2,2.8-2.4,2.4c-1.2-0.4-1.8-2.1-1.7-3.7C10.1,482,10,481.5,10,481z
			"/>
		<path class="st5" d="M158.8,372c-1.2,0.2-1.1-0.6-1.2-1.3c-2.6-25.1-3.8-50.3-1.8-75.5c1.9-24.1,4.9-48.1,8.1-72.1
			c1.6-11.8,3-23.5,7.1-34.7c1.1-3.2,1.3-6.6,0.9-10c1.1-11.5,1.3-23.2,5-34.4c0.5-1.4,1.1-2.8,0.8-4.4c0.3-2.1,0.2-4.3,0.9-6.2
			c1.3-3.7-1.7-7.2-0.2-10.8c0.1-1.1,0.2-2.2,0.2-3.3c0.3-4.1,0.9-4.5,5.1-2.9c0.1,3.7,0.2,7.3-0.6,10.9c-1.4,2.8-0.6,5.9-1.2,8.8
			c-1.7,7.8-3.6,15.5-4.9,23.3c-1.4,8.3-2.1,16.7-3.2,25c-0.3,2.3-0.9,4.6-1.4,6.9c-1,1.3-1.3,2.9-1.5,4.6
			c-0.6,4.6-1.3,9.1-1.9,13.7c-1.4,12.4-2.8,24.7-4.2,37.1c-1.4,5.4-1.9,11-2.4,16.6c-1,10.8-2.9,21.4-3.7,32.2
			c-1,14.9-0.4,29.8-0.1,44.7c-0.2,4.5-0.5,9-0.1,13.5c0,0.5,0,1,0,1.4c-0.1,5.4-0.6,10.7,0.2,16.1
			C158.9,371.4,158.9,371.7,158.8,372z"/>
		<path class="st3" d="M239.2,293.4c-0.1,0-0.1-0.1-0.2-0.2c0.1,0,0.2-0.1,0.2-0.1c0.1,0,0.1,0.1,0.2,0.1
			C239.4,293.3,239.3,293.3,239.2,293.4z"/>
		<path class="st3" d="M236.1,302.3c0-0.1,0.1-0.2,0.1-0.2c0.1,0,0.2,0,0.3,0.1c0,0.1-0.1,0.2-0.1,0.2
			C236.3,302.4,236.2,302.3,236.1,302.3z"/>
		<path class="st3" d="M229.5,312.4c-0.1,0-0.2-0.1-0.3-0.1c-0.1,0,0-0.1-0.1-0.2C229.3,312.1,229.4,312.3,229.5,312.4
			C229.5,312.4,229.5,312.4,229.5,312.4z"/>
		<path class="st3" d="M237,278.6c0.1-0.1,0.2-0.2,0.3-0.4c0,0.1,0,0.2-0.1,0.2C237.2,278.5,237.1,278.6,237,278.6
			C237,278.6,237,278.6,237,278.6z"/>
		<path class="st2" d="M178.5,122.6c-1.5,3.6,1.4,7.1,0.2,10.8c-0.7,1.9-0.6,4.1-0.9,6.2c-2.1,0.4-1.8-0.9-1.6-2.2
			c1.1-5.8-3.1-9.5-5.9-13.5c-1-1.4-4.1-0.9-4.8-3.8c1.4-0.2,4.1,1.3,3.5-2c2.2,0.3,3.4,2.3,5.1,3.3
			C175.4,122.1,176.8,122.9,178.5,122.6z"/>
		<path class="st5" d="M193.6,82.4c6.4,7.8,5.1,16.7,3.4,25.6c-0.2,1.2-0.4,2.8-2,3.3l0,0c0.4-1.8,1-3.6,1.2-5.4
			c0.6-7,1.7-14.1-2.6-20.5c-2.5-3.8-6.5-4.1-8.9-0.1c-1.2,2-1.9,4.2-2.3,6.6c-1,7-0.7,13.8,1,20.7c-0.3,0.2-0.5,0.5-0.8,0.8
			c-2.4-2.4-3.3-5.5-3.5-8.8c-0.4-5.2-0.4-10.5,1-15.6C182,81.6,186.9,79.3,193.6,82.4z"/>
		<path class="st5" d="M193.4,113.4c-3,3.5-4.8,3.8-9.5,1.7c-0.4-0.6-0.8-1.2-1.2-1.8c0.3-0.2,0.5-0.5,0.8-0.8
			C186.4,116.5,190,114.5,193.4,113.4L193.4,113.4z"/>
		<path class="st2" d="M195,111.3c0.1,0.7,0,1.3-0.9,1.4v0C194.4,112.2,194.7,111.8,195,111.3L195,111.3z"/>
		<path class="st2" d="M194.1,112.7c0,0.5-0.3,0.7-0.7,0.7h0C193.6,113.2,193.9,112.9,194.1,112.7L194.1,112.7z"/>
		<path class="st5" d="M194.5,113.2c-0.3,0.2-0.5,0.5-0.7,0.8c-3.8,1.1-7.6,3.2-10.9-0.9c-1.8-7-2.2-14.1-1.1-21.3
			c0.4-2.5,1.2-4.8,2.5-6.9c2.6-4.1,6.9-3.9,9.7,0.1c4.7,6.7,3.5,13.9,2.8,21.2c-0.2,1.9-0.9,3.7-1.3,5.6
			C195.1,112.3,194.8,112.8,194.5,113.2z"/>
	</g>
</g>
</svg>
